<?xml version="1.0" encoding="UTF-8"?>
<svg version="1.1" xmlns="http://www.w3.org/2000/svg" width="500" height="500">
<path d="M0 0 C1.17195917 -0.00644889 2.34391834 -0.01289778 3.55139142 -0.0195421 C5.47656119 -0.01489629 5.47656119 -0.01489629 7.44062328 -0.01015663 C8.82104767 -0.01389361 10.20146994 -0.01849532 11.58188885 -0.02388728 C15.3746987 -0.03612693 19.1674204 -0.03585568 22.96024549 -0.03349853 C27.0510239 -0.0330906 31.14177396 -0.04412717 35.23253918 -0.05361366 C43.24700934 -0.07022996 51.26145009 -0.07572349 59.27593604 -0.07683842 C65.79034113 -0.0777886 72.30473651 -0.0818974 78.81913853 -0.08823967 C97.28714942 -0.10585385 115.75513707 -0.11507827 134.22315643 -0.11357872 C135.7167285 -0.11345885 135.7167285 -0.11345885 137.24047375 -0.11333656 C138.73586868 -0.11321392 138.73586868 -0.11321392 140.26147362 -0.1130888 C156.41887416 -0.11227587 172.57618148 -0.13141498 188.73355506 -0.1596133 C205.32234067 -0.18833617 221.91108082 -0.20215392 238.49989194 -0.20042574 C247.81384796 -0.19976163 257.12770627 -0.20526317 266.4416399 -0.22678185 C274.37171107 -0.24498579 282.30164022 -0.24934747 290.23172323 -0.235763 C294.27730582 -0.22922933 298.32261591 -0.22913035 302.36817265 -0.2464695 C306.07372219 -0.26218795 309.77878289 -0.25934957 313.48432042 -0.24190123 C315.45554644 -0.23737604 317.42678754 -0.25249834 319.39795476 -0.26838052 C326.46460889 -0.21328884 331.18797328 0.40076368 337.1752882 4.25726891 C339.23388195 6.51117516 339.23388195 6.51117516 340.6127882 8.81976891 C341.08587414 9.58418297 341.55896008 10.34859703 342.04638195 11.13617516 C343.80997831 14.44978354 344.30976595 17.12646589 344.38061047 20.82050133 C344.40055569 21.74122932 344.42050091 22.66195732 344.44105053 23.61058617 C344.46611927 25.09665115 344.46611927 25.09665115 344.49169445 26.61273766 C344.51247555 27.62951088 344.53325665 28.6462841 344.55466747 29.69386864 C344.62008868 32.94409953 344.67901357 36.19441168 344.7377882 39.44476891 C344.78098047 41.64725129 344.82459499 43.84972544 344.86864758 46.05219078 C344.97576247 51.45379743 345.07754277 56.85548503 345.1752882 62.25726891 C345.7211105 61.70324394 346.26693279 61.14921898 346.82929516 60.57840538 C347.54715694 59.85416374 348.26501873 59.1299221 349.0046339 58.38373375 C349.7154562 57.66470879 350.4262785 56.94568382 351.15864086 56.20487022 C358.33589159 49.27335438 367.38140451 46.64087267 377.1752882 46.25726891 C387.45107141 46.70833209 397.44817488 50.96177653 404.6127882 58.38226891 C412.61216624 68.41906682 414.49909318 78.78295275 413.1752882 91.25726891 C410.48748108 105.19142685 398.68055221 115.05648782 389.00731945 124.65570641 C387.95801774 125.70381143 386.90909048 126.75229144 385.86051464 127.80112267 C383.68279976 129.97728911 381.50181803 132.15010456 379.31811047 134.32025719 C376.53254177 137.08874278 373.7536964 139.86386068 370.97703552 142.64127731 C368.81966359 144.7983764 366.65968875 146.95285307 364.49884129 149.10647011 C363.47329332 150.12885995 362.44832873 151.15183535 361.42398548 152.17543221 C352.49439742 161.09137327 352.49439742 161.09137327 348.5646925 164.29486656 C346.11775286 166.03287549 346.11775286 166.03287549 345.1752882 168.25726891 C345.0814009 169.62031935 345.0486905 170.98784616 345.04779625 172.35412598 C345.0447886 173.21705659 345.04178095 174.07998719 345.03868216 174.96906722 C345.04130772 176.39957602 345.04130772 176.39957602 345.04398632 177.85898399 C345.04187061 178.8677693 345.03975489 179.87655461 345.03757507 180.91590917 C345.03155244 184.31828068 345.03257683 187.72061534 345.0334425 191.12299156 C345.03041246 193.55362575 345.02689144 195.98425937 345.02291393 198.4148922 C345.01501192 203.66086 345.00985449 208.9068234 345.00662327 214.15279579 C345.00112926 222.44719301 344.98423358 230.74154903 344.96528149 239.03592491 C344.95892433 241.87320702 344.95261592 244.71048924 344.94630432 247.54777145 C344.94472056 248.25690847 344.9431368 248.96604548 344.94150504 249.69667149 C344.92356037 257.77302001 344.90733886 265.84937145 344.89232922 273.92572594 C344.89095334 274.66416891 344.88957747 275.40261189 344.88815991 276.16343193 C344.86624597 288.12097221 344.85547794 300.07850193 344.84795847 312.03605874 C344.83988255 324.31266288 344.81657512 336.58917636 344.7800048 348.86572874 C344.75799529 356.43730903 344.74831038 364.00870283 344.75450514 371.58031349 C344.75806004 377.38744285 344.7407914 383.19436632 344.71582699 389.00143623 C344.7089055 391.38142724 344.70879889 393.76144935 344.71602726 396.14143944 C344.72490354 399.39253609 344.70924015 402.6426362 344.68754101 405.89365196 C344.69598355 406.83394017 344.70442608 407.77422837 344.71312445 408.74301016 C344.62760656 415.68002609 342.9820876 420.93781208 338.4643507 426.28070641 C337.91521008 426.72672203 337.36606945 427.17273766 336.8002882 427.63226891 C336.25630383 428.09375328 335.71231945 428.55523766 335.1518507 429.03070641 C330.75839906 431.75707758 326.37435949 432.50736649 321.27438068 432.51453781 C319.52913064 432.52421115 319.52913064 432.52421115 317.74862301 432.53407991 C316.47976219 432.53098271 315.21090136 432.5278855 313.9035902 432.52469444 C312.53467714 432.52843264 311.16576622 432.53303483 309.79685867 432.53842509 C306.04051261 432.55064946 302.28425566 432.5503953 298.52789426 432.54803634 C294.47462516 432.54762803 290.42138457 432.55866855 286.36812878 432.56815147 C278.42932818 432.58475889 270.49055729 432.59026089 262.55174078 432.59137623 C256.09885844 432.59232674 249.64598589 432.59643718 243.19310665 432.60277748 C224.89701644 432.62038848 206.60094969 432.62961647 188.30485095 432.62811653 C187.31866263 432.62803662 186.3324743 432.62795671 185.31640148 432.62787437 C183.83531256 432.62775173 183.83531256 432.62775173 182.32430266 432.62762661 C166.3189287 432.62681355 150.31364881 432.64595669 134.30830206 432.67415111 C117.87316641 432.70287417 101.43807665 432.71669175 85.00291526 432.71496356 C75.77616425 432.7142995 66.54951188 432.71979881 57.32278347 432.74131966 C49.46776162 432.75952375 41.61288315 432.76388509 33.75784935 432.75030081 C29.75073891 432.74376749 25.74390359 432.74366694 21.73681927 432.76100731 C18.06646607 432.77672709 14.39660638 432.77388606 10.7262653 432.75643905 C8.77397555 432.75191446 6.82167057 432.76703503 4.8694402 432.78291833 C-3.08188578 432.72034276 -8.65258923 431.85753684 -14.8481493 426.51117516 C-15.29416492 425.95301109 -15.74018055 425.39484703 -16.1997118 424.81976891 C-16.66119617 424.26418297 -17.12268055 423.70859703 -17.5981493 423.13617516 C-20.54108978 418.62804022 -21.07576121 414.75409475 -21.08198071 409.41742802 C-21.08548678 408.73870609 -21.08899285 408.05998417 -21.09260517 407.36069492 C-21.10192397 405.08180922 -21.09699469 402.80317881 -21.09213734 400.52428246 C-21.09587336 398.87574645 -21.10047469 397.22721223 -21.10586798 395.57868081 C-21.11811935 391.04477267 -21.117835 386.51093821 -21.11547923 381.97701728 C-21.1150716 377.08868765 -21.12610503 372.20038181 -21.13559437 367.31206322 C-21.15221702 357.73346838 -21.15770448 348.15489815 -21.15881912 338.57629009 C-21.15976899 330.79138587 -21.16387622 323.00648978 -21.17022038 315.22158813 C-21.18783618 293.15663869 -21.19705871 271.09170872 -21.19555943 249.0267522 C-21.19547951 247.83688277 -21.1953996 246.64701334 -21.19531727 245.42108727 C-21.19523551 244.22976735 -21.19515375 243.03844743 -21.19506951 241.81102691 C-21.1942565 222.50120127 -21.21339711 203.19145361 -21.241594 183.88165053 C-21.27030875 164.06103053 -21.28413507 144.24044859 -21.28240645 124.41980726 C-21.28174206 113.28938875 -21.28725563 102.15905199 -21.30876255 91.02865219 C-21.32695579 81.55233097 -21.33133695 72.07612856 -21.3177437 62.59979745 C-21.3112047 57.76437717 -21.31113049 52.92918495 -21.3284502 48.09378624 C-21.34414475 43.6665988 -21.34135441 39.23982092 -21.32388194 34.81264368 C-21.32080405 33.21171746 -21.32447408 31.61076094 -21.33560209 30.00987043 C-21.39606994 20.69328142 -21.08097178 13.89599697 -15.29736805 6.23383141 C-14.59934071 5.56480797 -14.59934071 5.56480797 -13.8872118 4.88226891 C-13.42443836 4.42078453 -12.96166492 3.95930016 -12.48486805 3.48383141 C-8.56647965 0.58883386 -4.78037199 0.00665881 0 0 Z " fill="#FEFEFE" transform="translate(70.82471179962158,33.74273109436035)"/>
<path d="M0 0 C1.17195917 -0.00644889 2.34391834 -0.01289778 3.55139142 -0.0195421 C5.47656119 -0.01489629 5.47656119 -0.01489629 7.44062328 -0.01015663 C8.82104767 -0.01389361 10.20146994 -0.01849532 11.58188885 -0.02388728 C15.3746987 -0.03612693 19.1674204 -0.03585568 22.96024549 -0.03349853 C27.0510239 -0.0330906 31.14177396 -0.04412717 35.23253918 -0.05361366 C43.24700934 -0.07022996 51.26145009 -0.07572349 59.27593604 -0.07683842 C65.79034113 -0.0777886 72.30473651 -0.0818974 78.81913853 -0.08823967 C97.28714942 -0.10585385 115.75513707 -0.11507827 134.22315643 -0.11357872 C135.7167285 -0.11345885 135.7167285 -0.11345885 137.24047375 -0.11333656 C138.73586868 -0.11321392 138.73586868 -0.11321392 140.26147362 -0.1130888 C156.41887416 -0.11227587 172.57618148 -0.13141498 188.73355506 -0.1596133 C205.32234067 -0.18833617 221.91108082 -0.20215392 238.49989194 -0.20042574 C247.81384796 -0.19976163 257.12770627 -0.20526317 266.4416399 -0.22678185 C274.37171107 -0.24498579 282.30164022 -0.24934747 290.23172323 -0.235763 C294.27730582 -0.22922933 298.32261591 -0.22913035 302.36817265 -0.2464695 C306.07372219 -0.26218795 309.77878289 -0.25934957 313.48432042 -0.24190123 C315.45554644 -0.23737604 317.42678754 -0.25249834 319.39795476 -0.26838052 C326.46460889 -0.21328884 331.18797328 0.40076368 337.1752882 4.25726891 C339.23388195 6.51117516 339.23388195 6.51117516 340.6127882 8.81976891 C341.08587414 9.58418297 341.55896008 10.34859703 342.04638195 11.13617516 C343.80997831 14.44978354 344.30976595 17.12646589 344.38061047 20.82050133 C344.40055569 21.74122932 344.42050091 22.66195732 344.44105053 23.61058617 C344.46611927 25.09665115 344.46611927 25.09665115 344.49169445 26.61273766 C344.51247555 27.62951088 344.53325665 28.6462841 344.55466747 29.69386864 C344.62008868 32.94409953 344.67901357 36.19441168 344.7377882 39.44476891 C344.78098047 41.64725129 344.82459499 43.84972544 344.86864758 46.05219078 C344.97576247 51.45379743 345.07754277 56.85548503 345.1752882 62.25726891 C345.7211105 61.70324394 346.26693279 61.14921898 346.82929516 60.57840538 C347.54715694 59.85416374 348.26501873 59.1299221 349.0046339 58.38373375 C349.7154562 57.66470879 350.4262785 56.94568382 351.15864086 56.20487022 C358.33589159 49.27335438 367.38140451 46.64087267 377.1752882 46.25726891 C387.45107141 46.70833209 397.44817488 50.96177653 404.6127882 58.38226891 C412.61216624 68.41906682 414.49909318 78.78295275 413.1752882 91.25726891 C410.48748108 105.19142685 398.68055221 115.05648782 389.00731945 124.65570641 C387.95801774 125.70381143 386.90909048 126.75229144 385.86051464 127.80112267 C383.68279976 129.97728911 381.50181803 132.15010456 379.31811047 134.32025719 C376.53254177 137.08874278 373.7536964 139.86386068 370.97703552 142.64127731 C368.81966359 144.7983764 366.65968875 146.95285307 364.49884129 149.10647011 C363.47329332 150.12885995 362.44832873 151.15183535 361.42398548 152.17543221 C352.49439742 161.09137327 352.49439742 161.09137327 348.5646925 164.29486656 C346.11775286 166.03287549 346.11775286 166.03287549 345.1752882 168.25726891 C345.0814009 169.62031935 345.0486905 170.98784616 345.04779625 172.35412598 C345.0447886 173.21705659 345.04178095 174.07998719 345.03868216 174.96906722 C345.04130772 176.39957602 345.04130772 176.39957602 345.04398632 177.85898399 C345.04187061 178.8677693 345.03975489 179.87655461 345.03757507 180.91590917 C345.03155244 184.31828068 345.03257683 187.72061534 345.0334425 191.12299156 C345.03041246 193.55362575 345.02689144 195.98425937 345.02291393 198.4148922 C345.01501192 203.66086 345.00985449 208.9068234 345.00662327 214.15279579 C345.00112926 222.44719301 344.98423358 230.74154903 344.96528149 239.03592491 C344.95892433 241.87320702 344.95261592 244.71048924 344.94630432 247.54777145 C344.94472056 248.25690847 344.9431368 248.96604548 344.94150504 249.69667149 C344.92356037 257.77302001 344.90733886 265.84937145 344.89232922 273.92572594 C344.89095334 274.66416891 344.88957747 275.40261189 344.88815991 276.16343193 C344.86624597 288.12097221 344.85547794 300.07850193 344.84795847 312.03605874 C344.83988255 324.31266288 344.81657512 336.58917636 344.7800048 348.86572874 C344.75799529 356.43730903 344.74831038 364.00870283 344.75450514 371.58031349 C344.75806004 377.38744285 344.7407914 383.19436632 344.71582699 389.00143623 C344.7089055 391.38142724 344.70879889 393.76144935 344.71602726 396.14143944 C344.72490354 399.39253609 344.70924015 402.6426362 344.68754101 405.89365196 C344.69598355 406.83394017 344.70442608 407.77422837 344.71312445 408.74301016 C344.62760656 415.68002609 342.9820876 420.93781208 338.4643507 426.28070641 C337.91521008 426.72672203 337.36606945 427.17273766 336.8002882 427.63226891 C336.25630383 428.09375328 335.71231945 428.55523766 335.1518507 429.03070641 C330.75839906 431.75707758 326.37435949 432.50736649 321.27438068 432.51453781 C319.52913064 432.52421115 319.52913064 432.52421115 317.74862301 432.53407991 C316.47976219 432.53098271 315.21090136 432.5278855 313.9035902 432.52469444 C312.53467714 432.52843264 311.16576622 432.53303483 309.79685867 432.53842509 C306.04051261 432.55064946 302.28425566 432.5503953 298.52789426 432.54803634 C294.47462516 432.54762803 290.42138457 432.55866855 286.36812878 432.56815147 C278.42932818 432.58475889 270.49055729 432.59026089 262.55174078 432.59137623 C256.09885844 432.59232674 249.64598589 432.59643718 243.19310665 432.60277748 C224.89701644 432.62038848 206.60094969 432.62961647 188.30485095 432.62811653 C187.31866263 432.62803662 186.3324743 432.62795671 185.31640148 432.62787437 C183.83531256 432.62775173 183.83531256 432.62775173 182.32430266 432.62762661 C166.3189287 432.62681355 150.31364881 432.64595669 134.30830206 432.67415111 C117.87316641 432.70287417 101.43807665 432.71669175 85.00291526 432.71496356 C75.77616425 432.7142995 66.54951188 432.71979881 57.32278347 432.74131966 C49.46776162 432.75952375 41.61288315 432.76388509 33.75784935 432.75030081 C29.75073891 432.74376749 25.74390359 432.74366694 21.73681927 432.76100731 C18.06646607 432.77672709 14.39660638 432.77388606 10.7262653 432.75643905 C8.77397555 432.75191446 6.82167057 432.76703503 4.8694402 432.78291833 C-3.08188578 432.72034276 -8.65258923 431.85753684 -14.8481493 426.51117516 C-15.29416492 425.95301109 -15.74018055 425.39484703 -16.1997118 424.81976891 C-16.66119617 424.26418297 -17.12268055 423.70859703 -17.5981493 423.13617516 C-20.54108978 418.62804022 -21.07576121 414.75409475 -21.08198071 409.41742802 C-21.08548678 408.73870609 -21.08899285 408.05998417 -21.09260517 407.36069492 C-21.10192397 405.08180922 -21.09699469 402.80317881 -21.09213734 400.52428246 C-21.09587336 398.87574645 -21.10047469 397.22721223 -21.10586798 395.57868081 C-21.11811935 391.04477267 -21.117835 386.51093821 -21.11547923 381.97701728 C-21.1150716 377.08868765 -21.12610503 372.20038181 -21.13559437 367.31206322 C-21.15221702 357.73346838 -21.15770448 348.15489815 -21.15881912 338.57629009 C-21.15976899 330.79138587 -21.16387622 323.00648978 -21.17022038 315.22158813 C-21.18783618 293.15663869 -21.19705871 271.09170872 -21.19555943 249.0267522 C-21.19547951 247.83688277 -21.1953996 246.64701334 -21.19531727 245.42108727 C-21.19523551 244.22976735 -21.19515375 243.03844743 -21.19506951 241.81102691 C-21.1942565 222.50120127 -21.21339711 203.19145361 -21.241594 183.88165053 C-21.27030875 164.06103053 -21.28413507 144.24044859 -21.28240645 124.41980726 C-21.28174206 113.28938875 -21.28725563 102.15905199 -21.30876255 91.02865219 C-21.32695579 81.55233097 -21.33133695 72.07612856 -21.3177437 62.59979745 C-21.3112047 57.76437717 -21.31113049 52.92918495 -21.3284502 48.09378624 C-21.34414475 43.6665988 -21.34135441 39.23982092 -21.32388194 34.81264368 C-21.32080405 33.21171746 -21.32447408 31.61076094 -21.33560209 30.00987043 C-21.39606994 20.69328142 -21.08097178 13.89599697 -15.29736805 6.23383141 C-14.59934071 5.56480797 -14.59934071 5.56480797 -13.8872118 4.88226891 C-13.42443836 4.42078453 -12.96166492 3.95930016 -12.48486805 3.48383141 C-8.56647965 0.58883386 -4.78037199 0.00665881 0 0 Z M-4.8247118 18.25726891 C-5.12966566 21.18062063 -5.12966566 21.18062063 -5.07639408 24.6822567 C-5.07930096 25.35256117 -5.08220784 26.02286565 -5.08520281 26.71348238 C-5.09255887 28.98174772 -5.08553365 31.24974728 -5.07867908 33.51801109 C-5.08098131 35.15173418 -5.08415622 36.78545623 -5.08813357 38.4191761 C-5.096523 42.92584731 -5.0923376 47.43243438 -5.08616114 51.93910599 C-5.08165452 56.79260277 -5.08861147 61.64608462 -5.09412098 66.49957848 C-5.10303585 76.01441341 -5.10108368 85.52921688 -5.0952957 95.04405308 C-5.09078742 102.77377837 -5.09016268 110.50349482 -5.09234333 118.23322105 C-5.0926498 119.33141568 -5.09295626 120.4296103 -5.09327202 121.56108356 C-5.09391144 123.79172103 -5.09455986 126.0223585 -5.0952172 128.25299597 C-5.10092662 149.19249021 -5.09435301 170.13196697 -5.08361647 191.07145834 C-5.0746804 209.05658104 -5.07623227 227.04167792 -5.08545399 245.02680016 C-5.09614582 265.88899855 -5.10037725 286.75118159 -5.09422946 307.61338234 C-5.09359233 309.83602714 -5.09296359 312.05867195 -5.09234333 314.28131676 C-5.09203478 315.37503302 -5.09172623 316.46874929 -5.09140833 317.59560847 C-5.08967812 325.320194 -5.09260349 333.04476984 -5.09730244 340.76935387 C-5.10289922 350.17709161 -5.10142027 359.58479597 -5.09074095 368.99252987 C-5.08546796 373.79674239 -5.08345501 378.60089915 -5.09003925 383.40511131 C-5.09596736 387.79684574 -5.09277597 392.18847232 -5.08208415 396.58019686 C-5.07983671 398.17504662 -5.08101619 399.76990537 -5.08583573 401.36474943 C-5.0918548 403.52072571 -5.08574373 405.67632506 -5.07639408 407.83228111 C-5.07606938 409.03339153 -5.07574467 410.23450195 -5.07541013 411.47200966 C-5.11202493 414.39720245 -5.11202493 414.39720245 -2.8247118 416.25726891 C-0.3628852 416.56115713 -0.3628852 416.56115713 2.55391216 416.50895119 C4.27709093 416.51677443 4.27709093 416.51677443 6.03508139 416.52475572 C7.30801345 416.52029427 8.58094552 416.51583283 9.89245129 416.51123619 C11.24981304 416.51353866 12.60717354 416.51671374 13.96453142 416.52069068 C17.7073029 416.52907673 21.44997302 416.52489624 25.19274497 416.51871824 C29.22414939 416.51421025 33.25553586 416.52116926 37.28693676 416.52667809 C45.1895214 416.53559148 53.09206815 416.53364144 60.9946543 416.5278528 C67.414788 416.52334395 73.83491106 416.52272004 80.25504589 416.52490044 C81.16729131 416.5252069 82.07953674 416.52551337 83.01942596 416.52582912 C84.87238443 416.52646854 86.7253429 416.52711697 88.57830137 416.5277743 C105.97114372 416.5334833 123.36396503 416.52691079 140.75680393 416.51617357 C155.69464908 416.50723754 170.63246315 416.50878943 185.57030773 416.51801109 C202.89908024 416.52870369 220.22783428 416.53293392 237.55660963 416.52678657 C239.40291659 416.52614944 241.24922355 416.5255207 243.09553051 416.52490044 C244.00405139 416.52459189 244.91257227 416.52428333 245.84862408 416.52396543 C252.26425388 416.52223545 258.679872 416.5251601 265.09549999 416.52985954 C272.90940599 416.53545717 280.72327179 416.53397558 288.53717315 416.52329805 C292.52723236 416.51802621 296.51722443 416.51601018 300.50728321 416.52259636 C304.15515562 416.52852683 307.80289824 416.52532916 311.45075876 416.51464126 C313.40567094 416.51132517 315.36059203 416.51790406 317.31549501 416.52475572 C319.03867378 416.51693247 319.03867378 416.51693247 320.79666424 416.50895119 C321.79424456 416.50862648 322.79182488 416.50830178 323.81963491 416.50796723 C326.36486147 416.48656594 326.36486147 416.48656594 328.1752882 414.25726891 C328.36898232 411.24872065 328.43560314 408.3325037 328.41579723 405.32303429 C328.41750608 404.38619195 328.41921493 403.44934961 328.42097557 402.4841181 C328.42428596 399.32558034 328.41324133 396.16725214 328.40233898 393.00873375 C328.4017752 390.75230985 328.40209077 388.49588558 328.40322399 386.2394619 C328.4037998 380.09718237 328.3920086 373.95498033 328.37807608 367.81271887 C328.3656067 361.39984049 328.36440122 354.98696051 328.36202526 348.57407188 C328.35650748 337.80504314 328.34399962 327.03604841 328.32616711 316.26703453 C328.30781647 305.17361151 328.29365598 294.08019623 328.28515148 282.98676109 C328.28462603 282.30326455 328.28410059 281.61976801 328.28355922 280.91555946 C328.28094919 277.48674846 328.27842177 274.0579374 328.27593541 270.62912631 C328.25519308 242.17182085 328.21981058 213.71454641 328.1752882 185.25726891 C325.3348125 186.54943492 323.27687324 187.90607085 321.0747633 190.11055565 C320.48868801 190.69243645 319.90261272 191.27431725 319.29877758 191.8738308 C318.66795773 192.51027016 318.03713787 193.14670952 317.38720226 193.80243492 C316.71362179 194.47411705 316.04004131 195.14579918 315.34604931 195.83783531 C313.12275571 198.05742645 310.90673984 200.28413161 308.6909132 202.51117516 C307.14999772 204.05328255 305.60871261 205.59502068 304.06707287 207.13640404 C300.83945726 210.36558345 297.61522945 213.59809512 294.39354992 216.83319664 C290.25335855 220.99041325 286.10657899 225.14098085 281.95748806 229.28931332 C278.77632193 232.47075061 275.59776293 235.65478161 272.42009258 238.83971024 C270.89119157 240.37180393 269.36167485 241.90328344 267.83154583 243.4341507 C265.70042732 245.56742442 263.57262693 247.70395017 261.44579601 249.84149742 C260.48742085 250.79919281 260.48742085 250.79919281 259.50968456 251.77623558 C256.56860041 254.14491772 256.56860041 254.14491772 255.1752882 257.25726891 C256.65122448 257.27128746 256.65122448 257.27128746 258.15697765 257.28558922 C261.8083168 257.32546771 265.45881139 257.39121871 269.10961437 257.46478844 C270.68958212 257.49301084 272.26969138 257.51421916 273.84984875 257.528265 C276.12182665 257.54967855 278.39210091 257.59631424 280.66356945 257.64789391 C281.36992031 257.64912254 282.07627117 257.65035118 282.8040266 257.65161705 C286.02324202 257.74772988 287.74980778 257.85995031 290.14867687 260.10004234 C291.62588491 263.20411136 291.22611977 265.03471875 290.1752882 268.25726891 C288.66454601 269.51654625 288.66454601 269.51654625 286.1752882 270.25726891 C284.08913767 270.02128256 282.00262091 269.76974933 279.93400097 269.41124535 C266.18058864 267.08255533 249.28459304 265.31355673 237.08306408 273.27490807 C229.38702319 279.49238162 222.79248375 286.8124083 216.2377882 294.19476891 C196.50052456 316.36233162 179.53125562 327.63632243 150.38817883 335.74310875 C143.29386502 337.74221005 136.48115419 340.41500671 129.63729382 343.1326046 C126.72581693 344.28165638 123.7961885 345.38169602 120.86669445 346.48383141 C119.95089611 346.83010582 119.03509777 347.17638023 118.09154797 347.53314781 C117.45918224 347.77210777 116.82681652 348.01106773 116.1752882 348.25726891 C116.1752882 348.58726891 116.1752882 348.91726891 116.1752882 349.25726891 C117.49168978 349.25946875 117.49168978 349.25946875 118.83468533 349.26171303 C140.17486429 349.29874208 161.51488394 349.35770485 182.85493374 349.44117165 C193.17477465 349.48100476 203.49453883 349.51337552 213.81444836 349.528265 C222.80781967 349.5412594 231.80102247 349.56816731 240.79429889 349.61188197 C245.55753749 349.63454667 250.32056785 349.6501766 255.08386517 349.64915276 C259.56550715 349.64840909 264.04668794 349.66624111 268.52821064 349.69843674 C270.17454266 349.70696866 271.82092622 349.70866343 273.46727085 349.70307159 C275.71287298 349.69645924 277.95699576 349.714283 280.20244884 349.73828697 C281.45977448 349.74197414 282.71710011 349.74566132 284.01252651 349.74946022 C287.74586994 350.34888073 288.97639422 351.22226486 291.1752882 354.25726891 C291.1752882 357.54274438 290.91120723 359.41097097 288.73198223 361.91705322 C284.70323109 364.02891933 280.75007505 363.66964426 276.26818371 363.63821983 C275.25078373 363.64289981 274.23338376 363.64757978 273.18515348 363.65240157 C269.76571801 363.66439642 266.34667999 363.65487661 262.92724133 363.6454525 C260.47996823 363.64951619 258.03269696 363.65485693 255.58542919 363.66138268 C249.62218828 363.67366194 243.65910417 363.67183735 237.69586933 363.66314475 C232.84997463 363.656373 228.00411168 363.65544928 223.15821362 363.6587162 C222.46884552 363.6591759 221.77947742 363.6596356 221.06921938 363.66010923 C219.66883543 363.66106839 218.26845149 363.66204103 216.86806756 363.663027 C203.73284032 363.67158417 190.59767586 363.66174166 177.46245891 363.6456259 C166.18880676 363.63222241 154.91524727 363.63455041 143.64159679 363.64838219 C130.55377123 363.66443225 117.46600071 363.67076017 104.37816668 363.6615454 C102.98289872 363.66058974 101.58763076 363.65964662 100.19236279 363.6587162 C99.50584213 363.65825338 98.81932147 363.65779055 98.11199716 363.6573137 C93.27122873 363.65472208 88.43049519 363.65909849 83.58973217 363.66615486 C77.07593778 363.67544117 70.56229161 363.66884138 64.04850483 363.65147209 C61.65392441 363.64749589 59.2593293 363.64866054 56.86475468 363.65526009 C53.60376609 363.66342075 50.34334483 363.65322 47.08239269 363.63821983 C46.12792641 363.644912 45.17346013 363.65160416 44.19007063 363.65849912 C37.85944691 363.6017594 37.85944691 363.6017594 34.58343792 361.95220947 C33.1752882 360.25726891 33.1752882 360.25726891 32.7377882 356.75726891 C33.1752882 353.25726891 33.1752882 353.25726891 34.24531078 351.56554222 C37.15759464 349.59139308 40.09204293 349.81792335 43.49242687 349.82489586 C44.23413631 349.81470421 44.97584576 349.80451256 45.74003124 349.79401207 C48.19118272 349.76382228 50.64194379 349.75460727 53.09325695 349.74555016 C54.79292131 349.72870785 56.49257317 349.71055822 58.1922102 349.69115257 C62.66543201 349.64359748 67.1386032 349.61382389 71.61199474 349.58771324 C76.17681409 349.55793541 80.74145888 349.5113956 85.30614758 349.46625328 C94.26243658 349.38015758 103.21876145 349.31284025 112.1752882 349.25726891 C112.2681007 347.97602135 112.3609132 346.69477379 112.4565382 345.37470055 C113.05832764 340.01873532 114.71550786 335.37295103 116.6752882 330.37836266 C117.02986095 329.44919533 117.38443371 328.520028 117.74975109 327.56270409 C118.88169427 324.60281186 120.02801319 321.64874759 121.1752882 318.69476891 C121.9145637 316.77132262 122.65285213 314.84749666 123.39013195 312.92328453 C124.4776573 310.08582452 125.56633023 307.24883732 126.6596632 304.4136095 C129.46768825 297.12937964 132.22502701 289.8270968 134.96044445 282.51532555 C135.36911755 281.42419708 135.77779064 280.33306862 136.19884777 279.20887566 C137.19144746 276.55850924 138.18358861 273.90797221 139.1752882 271.25726891 C137.89155819 271.25140266 136.60782818 271.24553642 135.28519726 271.23949242 C123.20405196 271.18235015 111.12308815 271.10963324 99.04212761 271.02155399 C92.8307496 270.97677205 86.61943837 270.9375332 80.40795422 270.91083336 C74.41672041 270.88487846 68.42574253 270.84453163 62.43466663 270.79408264 C60.14569621 270.77736095 57.85668146 270.76587983 55.56765842 270.759655 C52.3684783 270.75007156 49.16996087 270.72208122 45.9709425 270.68964195 C45.01860226 270.69107704 44.06626202 270.69251213 43.08506298 270.69399071 C42.21428112 270.68145256 41.34349926 270.66891441 40.44633007 270.65599632 C39.31114201 270.64908288 39.31114201 270.64908288 38.15302086 270.64202976 C35.59827501 270.14501304 34.70952669 269.33674362 33.1752882 267.25726891 C32.8627882 263.69476891 32.8627882 263.69476891 33.1752882 260.25726891 C35.1752882 258.25726891 35.1752882 258.25726891 37.22906303 258.01790237 C38.08092595 258.02276217 38.93278887 258.02762196 39.81046581 258.03262901 C40.78755505 258.03302681 41.76464428 258.03342461 42.77134228 258.03383446 C43.84719082 258.04424263 44.92303936 258.0546508 46.03148937 258.06537437 C47.16170513 258.06817909 48.29192089 258.07098381 49.45638561 258.07387352 C51.917842 258.08038611 54.3792901 258.09098804 56.84071445 258.10513496 C60.7368779 258.12454919 64.63267372 258.12680885 68.52888012 258.12326622 C69.8630924 258.12207278 71.1973047 258.12090378 72.53151703 258.11975861 C73.53392188 258.11888823 73.53392188 258.11888823 74.55657732 258.11800027 C83.62763863 258.11197656 92.69837179 258.12426846 101.76928234 258.17816734 C108.54106542 258.21821431 115.31188437 258.21628281 122.08372974 258.19059181 C124.66530928 258.18817579 127.24694479 258.20027895 129.82838535 258.22717476 C133.44404113 258.26329842 137.05643195 258.25000347 140.67211437 258.22553062 C142.27070545 258.25936096 142.27070545 258.25936096 143.9015913 258.29387474 C149.44533391 258.22620079 149.44533391 258.22620079 154.19405365 255.66239262 C155.98855679 253.60582576 157.57378252 251.4661708 159.1752882 249.25726891 C160.28733489 248.05511041 161.42406739 246.87528237 162.58515453 245.72041893 C163.16404934 245.1387043 163.74294415 244.55698967 164.33938122 243.95764732 C165.25069302 243.04937187 165.25069302 243.04937187 166.18041515 242.12274742 C167.17199375 241.12854034 167.17199375 241.12854034 168.18360424 240.11424828 C170.34110634 237.95239043 172.50219082 235.79415679 174.66356945 233.63617516 C176.17349639 232.12557386 177.68327492 230.6148242 179.1929121 229.10393333 C182.34239843 225.95297897 185.49367094 222.80382504 188.64623547 219.65595055 C192.69275905 215.61515322 196.73473709 211.56984334 200.77541351 207.52320004 C203.88502892 204.40997989 206.99701115 201.29913446 210.10972691 198.18901443 C211.6020526 196.69735673 213.0936333 195.20495333 214.58446217 193.71179962 C216.65961493 191.63411864 218.73792627 189.55965071 220.8171339 187.48602867 C221.43479626 186.86634209 222.05245861 186.2466555 222.68883801 185.60819054 C226.94674753 181.37153924 226.94674753 181.37153924 229.1752882 180.25726891 C229.1752882 179.59726891 229.1752882 178.93726891 229.1752882 178.25726891 C228.17730772 178.25395876 227.17932724 178.25064861 226.15110493 178.24723816 C201.89919743 178.16634406 177.64735384 178.0740595 153.39553547 177.96974182 C141.66767342 177.91956052 129.93981857 177.87311834 118.21190929 177.83539391 C107.99318724 177.80251458 97.77452007 177.76270607 87.55585849 177.71447885 C82.14216039 177.68917336 76.72849888 177.66740416 71.31475735 177.65392494 C66.22423477 177.6411412 61.13383743 177.61912708 56.0433836 177.58988571 C54.17044582 177.58078096 52.29748785 177.575113 50.42452908 177.57305527 C47.87647117 177.56975308 45.32877279 177.55433183 42.78078747 177.53574181 C41.65726004 177.53864391 41.65726004 177.53864391 40.51103508 177.54160464 C35.40353062 177.48551133 35.40353062 177.48551133 33.1752882 175.25726891 C32.9799757 173.09320641 32.9799757 173.09320641 33.0502882 170.63226891 C33.06833508 169.81500328 33.08638195 168.99773766 33.1049757 168.15570641 C33.12817883 167.52922203 33.15138195 166.90273766 33.1752882 166.25726891 C36.87573805 165.02378562 40.0478849 165.37481508 43.86728954 165.6642971 C45.51648618 165.77761399 47.1657084 165.89055903 48.8149519 166.00319195 C50.14207038 166.0966359 50.14207038 166.0966359 51.49599934 166.19196761 C173.10217959 180.73855277 173.10217959 180.73855277 283.02546215 142.59160423 C308.35202722 120.2384997 331.26355527 89.09473193 333.63297939 54.39025211 C334.14204827 42.31951787 332.6502188 29.52586378 328.1752882 18.25726891 C325.55599925 15.63797995 324.44854474 16.00677528 320.79666424 16.00558662 C319.64787839 16.00037113 318.49909255 15.99515563 317.31549501 15.98978209 C316.04256295 15.99424354 314.76963088 15.99870498 313.45812511 16.00330162 C312.10076336 16.00099915 310.74340286 15.99782407 309.38604498 15.99384713 C305.6432735 15.98546108 301.90060338 15.98964157 298.15783143 15.99581957 C294.12642701 16.00032756 290.09504054 15.99336855 286.06363964 15.98785973 C278.161055 15.97894634 270.25850826 15.98089637 262.3559221 15.98668501 C255.9357884 15.99119386 249.51566534 15.99181778 243.09553051 15.98963737 C241.72716238 15.98917768 241.72716238 15.98917768 240.33115044 15.98870869 C238.47819197 15.98806927 236.6252335 15.98742084 234.77227503 15.98676351 C217.37943268 15.98105451 199.98661137 15.98762702 182.59377247 15.99836424 C167.65592732 16.00730027 152.71811326 16.00574838 137.78026867 15.99652672 C120.45149616 15.98583412 103.12274212 15.98160389 85.79396677 15.98775125 C83.94765981 15.98838837 82.10135285 15.98901711 80.25504589 15.98963737 C79.34652501 15.98994593 78.43800413 15.99025448 77.50195232 15.99057238 C71.08632252 15.99230236 64.6707044 15.98937771 58.25507641 15.98467827 C50.44117041 15.97908064 42.62730462 15.98056223 34.81340325 15.99123976 C30.82334404 15.9965116 26.83335197 15.99852763 22.84329319 15.99194145 C19.19542078 15.98601098 15.54767816 15.98920866 11.89981765 15.99989656 C9.94490546 16.00321264 7.98998437 15.99663375 6.03508139 15.98978209 C4.31190262 15.99760534 4.31190262 15.99760534 2.55391216 16.00558662 C1.05754168 16.00607368 1.05754168 16.00607368 -0.46905851 16.00657058 C-3.01428507 16.02797187 -3.01428507 16.02797187 -4.8247118 18.25726891 Z " fill="#252222" transform="translate(70.82471179962158,33.74273109436035)"/>
<path d="M0 0 C0.88480543 -0.00905664 1.76961086 -0.01811328 2.68122858 -0.02744436 C4.14064295 -0.01945247 4.14064295 -0.01945247 5.62954044 -0.01129913 C6.6624202 -0.01739024 7.69529996 -0.02348134 8.75947911 -0.02975702 C12.23727762 -0.04647053 15.71471335 -0.04159925 19.19254398 -0.03681183 C21.67907946 -0.04414728 24.16561151 -0.05273197 26.65213871 -0.06247711 C32.71509967 -0.08244016 38.77791679 -0.0880707 44.84089785 -0.08628923 C49.76786386 -0.08498275 54.69479999 -0.08877989 59.62176037 -0.09621429 C61.03975918 -0.09831344 62.45775799 -0.10041104 63.8757568 -0.10250711 C64.58148475 -0.10355064 65.2872127 -0.10459417 66.01432634 -0.10566932 C79.36795749 -0.12458063 92.72153373 -0.12351874 106.07517273 -0.11669999 C118.29733419 -0.11112355 130.51928609 -0.13195256 142.74139857 -0.16506046 C155.28466859 -0.19877519 167.82783817 -0.2139686 180.37115437 -0.20934343 C187.41586105 -0.20709652 194.46037404 -0.21237406 201.50504208 -0.23723602 C208.12804476 -0.26041041 214.75068327 -0.25769347 221.37371922 -0.2373085 C223.80861911 -0.23388395 226.24354798 -0.23904916 228.67840862 -0.25329208 C231.99450504 -0.27135581 235.30909675 -0.25883022 238.62514591 -0.23834991 C240.0812142 -0.25712669 240.0812142 -0.25712669 241.56669801 -0.27628279 C248.04781546 -0.19006389 248.04781546 -0.19006389 251.31994057 2.72663879 C252.690835 5.38311005 252.690835 5.38311005 252.690835 8.50811005 C251.47663637 11.99893111 250.94966945 12.67249326 247.690835 14.38311005 C244.3654299 14.83559785 241.05940768 14.79172368 237.70780277 14.7707901 C236.68223569 14.77617564 235.65666862 14.78156118 234.60002375 14.78710991 C231.15295965 14.80145257 227.70627616 14.79427012 224.25919437 14.78716278 C221.79221632 14.792863 219.32524091 14.79982589 216.85826969 14.80796051 C210.84690831 14.82407545 204.83569728 14.82598502 198.82432902 14.82074761 C193.93934069 14.81670825 189.05438325 14.81814666 184.1693964 14.82349586 C183.47447758 14.82424429 182.77955876 14.82499271 182.06358179 14.82576381 C180.65192385 14.82729526 179.24026591 14.82883361 177.82860798 14.83037878 C164.58751471 14.84410989 151.34648051 14.83866163 138.10538858 14.82719357 C125.98678258 14.81725838 113.8683292 14.83020564 101.74974674 14.85412776 C89.31040837 14.87849835 76.87114115 14.8881318 64.43177938 14.88147503 C57.44636471 14.87797853 50.46106747 14.88024326 43.47567081 14.89772606 C36.90931995 14.91395609 30.34321393 14.90929828 23.77685452 14.89042091 C21.36292103 14.88672054 18.94896612 14.88988532 16.5350523 14.9003067 C13.24764879 14.91341878 9.96122759 14.90205549 6.67386723 14.88431549 C5.23049496 14.898723 5.23049496 14.898723 3.75796366 14.91342157 C-2.65045489 14.84193719 -2.65045489 14.84193719 -5.90576077 12.57444096 C-7.95038447 9.38188459 -7.78057054 7.08701067 -7.309165 3.38311005 C-5.13648821 0.46282651 -3.57009065 0.0073301 0 0 Z " fill="#231F20" transform="translate(110.30916500091553,105.61688995361328)"/>
</svg>
